<?xml version="1.0" encoding="utf-8"?>
<!-- Generator: Adobe Illustrator 25.2.1, SVG Export Plug-In . SVG Version: 6.00 Build 0)  -->
<svg version="1.1" id="Layer_1" xmlns="http://www.w3.org/2000/svg" xmlns:xlink="http://www.w3.org/1999/xlink" x="0px" y="0px"
	 viewBox="0 0 20.8 19.8" style="enable-background:new 0 0 20.8 19.8;" xml:space="preserve">
<style type="text/css">
	.st0{fill:url(#SVGID_1_);}
</style>
<linearGradient id="SVGID_1_" gradientUnits="userSpaceOnUse" x1="4.6726" y1="2.38" x2="16.2479" y2="14.2873">
	<stop  offset="0.1333" style="stop-color:#EF1414"/>
	<stop  offset="0.4405" style="stop-color:#ED0B00;stop-opacity:0.7"/>
	<stop  offset="0.7415" style="stop-color:#EE0000"/>
</linearGradient>
<path class="st0" d="M19.4,7.6c0,0.3,0,0.6-0.1,0.9c0,0,0,0.1,0,0.2c0,0.1-0.1,0.2-0.1,0.4c0,0.1,0,0.1-0.1,0.2c0,0,0,0.1-0.1,0.3
	c0,0.1-0.1,0.2-0.1,0.3c-0.7,1.7-2.8,5.1-8.5,9.9l0.2-0.2l-0.2,0.2C2.1,12.7,1.5,8.7,1.5,8.6v0c0-0.1,0-0.2-0.1-0.3
	c0-0.2,0-0.4,0-0.6c0-2.7,2.2-4.9,4.9-4.9c1.7,0,3.2,0.9,4.1,2.2c0.9-1.3,2.4-2.2,4.1-2.2C17.2,2.7,19.4,4.9,19.4,7.6z"/>
</svg>
