<svg id="Layer_1" data-name="Layer 1" xmlns="http://www.w3.org/2000/svg" viewBox="0 0 33.91 33.91"><defs><style>.cls-1{fill:#444545;}</style></defs><path class="cls-1" d="M17,33.91A17,17,0,1,1,33.91,17,17,17,0,0,1,17,33.91ZM17,3a14,14,0,1,0,14,14A14,14,0,0,0,17,3Z" transform="translate(0 0)"/><rect class="cls-1" x="7.85" y="14.4" width="4.6" height="5.72"/><polygon class="cls-1" points="8.97 15.86 10.15 19.04 10.15 19.04 18.09 23.62 18.09 10.6 8.97 15.86"/><path class="cls-1" d="M21,20.89l-1.27-1.55a3.11,3.11,0,0,0,1.36-2.29,4.39,4.39,0,0,0-1.4-2.86L21,12.71a6.4,6.4,0,0,1,2.06,4.38A5,5,0,0,1,21,20.89Z" transform="translate(0 0)"/><path class="cls-1" d="M23.81,22.08l-1.26-1.55a4.61,4.61,0,0,0,2-3.39c.05-2.2-2-4.11-2-4.13l1.34-1.49c.11.11,2.75,2.52,2.67,5.68A6.51,6.51,0,0,1,23.81,22.08Z" transform="translate(0 0)"/></svg>