<?xml version="1.0" encoding="utf-8"?>
<!-- Generator: Adobe Illustrator 25.0.0, SVG Export Plug-In . SVG Version: 6.00 Build 0)  -->
<svg version="1.1" id="Layer_1" xmlns="http://www.w3.org/2000/svg" xmlns:xlink="http://www.w3.org/1999/xlink" x="0px" y="0px"
	 viewBox="0 0 33.91 33.91" style="enable-background:new 0 0 33.91 33.91;" xml:space="preserve">
<style type="text/css">
	.st0{fill:#444545;}
	.st1{fill:none;stroke:#444545;stroke-width:2;stroke-miterlimit:10;}
</style>
<path class="st0" d="M16.96,33.91C7.61,33.91,0,26.3,0,16.96S7.61,0,16.96,0s16.96,7.61,16.96,16.96S26.3,33.91,16.96,33.91z
	 M16.96,3C9.26,3,3,9.26,3,16.96s6.26,13.96,13.96,13.96s13.96-6.26,13.96-13.96S24.65,3,16.96,3z"/>
<rect x="7.85" y="14.4" class="st0" width="4.6" height="5.72"/>
<polygon class="st0" points="8.97,15.86 10.15,19.04 10.15,19.04 18.09,23.62 18.09,10.6 "/>
<line class="st1" x1="25" y1="14.7" x2="20.62" y2="19.52"/>
<line class="st1" x1="20.4" y1="14.92" x2="25.22" y2="19.3"/>
</svg>
